<?xml version="1.0" encoding="UTF-8" standalone="no"?>
<!-- Created with Inkscape (http://www.inkscape.org/) -->

<svg
   width="256"
   height="256"
   viewBox="0 0 67.733325 67.733325"
   version="1.1"
   id="svg5"
   inkscape:version="1.4 (86a8ad7, 2024-10-11)"
   sodipodi:docname="darknet-depths.svg"
   xmlns:inkscape="http://www.inkscape.org/namespaces/inkscape"
   xmlns:sodipodi="http://sodipodi.sourceforge.net/DTD/sodipodi-0.dtd"
   xmlns="http://www.w3.org/2000/svg"
   xmlns:svg="http://www.w3.org/2000/svg">
  <sodipodi:namedview
     id="namedview7"
     pagecolor="#ffffff"
     bordercolor="#666666"
     borderopacity="1.0"
     inkscape:pageshadow="2"
     inkscape:pageopacity="0.0"
     inkscape:pagecheckerboard="0"
     inkscape:document-units="mm"
     showgrid="true"
     units="px"
     inkscape:current-layer="svg5"
     inkscape:showpageshadow="2"
     inkscape:deskcolor="#d1d1d1">
    <inkscape:grid
       type="xygrid"
       id="grid1"
       originx="0"
       originy="0"
       spacingy="1"
       spacingx="1"
       units="px" />
  </sodipodi:namedview>
  <defs
     id="defs2" />
  <g
     inkscape:groupmode="layer"
     id="layer2"
     inkscape:label="background">
    <rect
       style="fill-opacity: 0%;stroke:none;stroke-width:7.02745"
       id="rect1"
       width="67.73333"
       height="67.73333"
       x="0"
       y="0" />
  </g>
  <g
     inkscape:label="main"
     inkscape:groupmode="layer"
     id="layer1"
     transform="translate(0.27560617,7.2846654)">
    <path
       style="font-weight:bold;font-size:38.8056px;line-height:1.25;font-family:Arial;-inkscape-font-specification:'Arial Bold';text-align:center;text-anchor:middle;fill:#000000;stroke-width:0.264583"
       d="M 55.381314,14.095238 44.258811,25.217742 h 5.665466 v 2.728518 q 0,1.781117 -0.416857,3.486441 -0.397909,1.705324 -1.193727,3.29696 l 2.747467,2.747467 q 0.890558,0 1.667428,0.341065 0.795818,0.341064 1.383207,0.928454 0.587389,0.587389 0.928454,1.364259 0.341065,0.77687 0.341065,1.686376 0,0.871611 -0.341065,1.64848 -0.322117,0.795818 -0.928454,1.402156 l -2.254818,2.254817 q -0.606337,0.606338 -1.402155,0.928455 -0.77687,0.341065 -1.64848,0.341065 -0.890558,0 -1.686376,-0.341065 -0.77687,-0.341065 -1.36426,-0.928455 -0.587389,-0.587389 -0.928454,-1.383207 -0.341065,-0.77687 -0.341065,-1.667428 l -2.747466,-2.747467 q -1.212675,0.606338 -2.292714,0.928454 -1.080039,0.341065 -2.160077,0.49265 -1.080039,0.151584 -2.197974,0.170532 -1.117934,0.0379 -2.406402,0.0379 h -0.454753 q -1.781116,0 -3.48644,-0.416857 -1.705324,-0.416857 -3.29696,-1.212675 L 22.695934,44.0521 q 0,0.909506 -0.341065,1.686376 -0.341065,0.77687 -0.928454,1.345311 -0.568442,0.58739 -1.36426,0.909507 -0.776869,0.341064 -1.686376,0.341064 -0.852662,0 -1.64848,-0.322116 -0.795818,-0.303169 -1.402155,-0.909507 -0.568442,-0.549493 -1.136883,-1.117934 -0.549493,-0.568442 -1.117935,-1.136883 -0.606337,-0.606338 -0.947402,-1.402156 -0.322117,-0.776869 -0.322117,-1.64848 0,-0.890558 0.341065,-1.667428 0.341065,-0.795818 0.928454,-1.383207 0.58739,-0.58739 1.36426,-0.928454 0.795818,-0.341065 1.686376,-0.341065 l 2.747467,-2.747467 q -0.606338,-1.212675 -0.947403,-2.292714 -0.322117,-1.080038 -0.473701,-2.160077 -0.151584,-1.080038 -0.18948,-2.197973 -0.01895,-1.117935 -0.01895,-2.406402 V 25.217742 H 22.92331 L 11.800807,14.095238 V 4.7917476 h 9.303491 L 33.591061,17.27851 46.077823,4.7917476 h 9.303491 z M 52.652795,7.5202663 h -5.438089 q -5.419141,5.4191417 -10.857231,10.8193347 -5.438089,5.400193 -10.819334,10.857231 0.18948,1.023194 0.68213,1.9327 0.492649,0.909506 1.193726,1.629532 0.720026,0.701078 1.629532,1.193727 0.909507,0.492649 1.932701,0.68213 5.43809,-5.400193 10.838283,-10.819335 5.419141,-5.438089 10.838282,-10.85723 z M 27.186621,25.615651 32.62471,20.177561 19.967415,7.5202663 h -5.438089 v 5.4380897 z m 20.028085,2.330609 h -4.092778 q 0,1.686377 -0.644234,3.183272 -0.625285,1.477948 -1.74322,2.595883 -1.098987,1.098986 -2.595882,1.74322 -1.477948,0.644233 -3.183272,0.644233 v 4.092779 q 2.539038,0 4.774908,-0.947403 2.235869,-0.96635 3.884349,-2.633778 1.667428,-1.667428 2.633779,-3.903298 0.96635,-2.235869 0.96635,-4.774908 z m -27.247291,0 q 0,1.686377 0.435805,3.259064 0.435805,1.572688 1.231623,2.936948 0.814766,1.345311 1.932701,2.463246 1.117935,1.117934 2.463246,1.9327 1.364259,0.795818 2.936947,1.231623 1.572688,0.435806 3.259064,0.435806 v -4.092779 q -1.686376,0 -3.183272,-0.644233 -1.477947,-0.644234 -2.595882,-1.74322 -1.098987,-1.117935 -1.74322,-2.595883 -0.644234,-1.496895 -0.644234,-3.183272 z m 20.028085,-0.397909 -5.438089,5.43809 1.64848,1.64848 q 1.023195,-0.189481 1.932701,-0.68213 0.909506,-0.492649 1.610584,-1.193727 0.720026,-0.720026 1.212675,-1.629532 0.492649,-0.909506 0.682129,-1.9327 z M 47.214706,44.0521 q 0,0.663182 0.454753,1.117935 0.454753,0.473701 1.117935,0.473701 0.68213,0 1.136883,-0.454753 0.568441,-0.549494 1.136883,-1.117935 0.587389,-0.568441 1.136882,-1.136883 0.454753,-0.492649 0.454753,-1.136883 0,-0.682129 -0.473701,-1.136882 -0.454753,-0.454753 -1.117934,-0.454753 -0.227377,0 -0.454754,0.05684 -0.227376,0.05684 -0.416857,0.18948 -0.07579,0.05684 -0.303168,0.246325 -0.208429,0.208428 -0.511598,0.492649 -0.28422,0.284221 -0.606337,0.606337 -0.322117,0.322117 -0.606338,0.606338 -0.265272,0.284221 -0.473701,0.492649 -0.18948,0.227377 -0.227376,0.284221 -0.132637,0.18948 -0.189481,0.416857 -0.05684,0.227376 -0.05684,0.454753 z M 16.13991,40.205647 q -0.663182,0 -1.136883,0.454753 -0.473701,0.473701 -0.473701,1.136882 0,0.265273 0.09474,0.549494 0.09474,0.303169 0.303169,0.511597 l 2.311662,2.33061 q 0.454753,0.454753 1.136882,0.454753 0.322117,0 0.606338,-0.132636 0.303169,-0.113689 0.511597,-0.322117 0.227377,-0.208429 0.341065,-0.492649 0.132636,-0.284221 0.132636,-0.625286 0,-0.625286 -0.435805,-1.098987 Q 19.34213,42.763633 19.001065,42.40362 18.66,42.043607 18.281039,41.645698 17.902078,41.266737 17.542065,40.925672 17.201,40.603555 16.992572,40.451971 q -0.170533,-0.132636 -0.416857,-0.18948 -0.227377,-0.05684 -0.435805,-0.05684 z m 29.710537,-4.092779 q -1.174779,1.572688 -2.728519,2.728519 l 3.372752,3.372752 q 0.113689,-0.170532 0.49265,-0.568441 0.37896,-0.397909 0.814766,-0.833714 0.454753,-0.435805 0.852662,-0.814766 0.397909,-0.397909 0.568441,-0.511597 z m -21.790254,2.728519 q -1.572688,-1.155831 -2.728518,-2.728519 l -3.372753,3.372753 q 0.170533,0.113688 0.568442,0.511597 0.397909,0.378961 0.833714,0.814766 0.435805,0.435805 0.814766,0.833714 0.397909,0.397909 0.511597,0.568441 z"
       id="text1"
       aria-label="⚔️" />
  </g>
</svg>
