<?xml version="1.0" encoding="UTF-8" standalone="no"?>
<!-- Created with Inkscape (http://www.inkscape.org/) -->

<svg
   width="256"
   height="256"
   viewBox="0 0 67.733325 67.733325"
   version="1.1"
   id="svg5"
   inkscape:version="1.4 (86a8ad7, 2024-10-11)"
   sodipodi:docname="darknet-backdoor.svg"
   xmlns:inkscape="http://www.inkscape.org/namespaces/inkscape"
   xmlns:sodipodi="http://sodipodi.sourceforge.net/DTD/sodipodi-0.dtd"
   xmlns="http://www.w3.org/2000/svg"
   xmlns:svg="http://www.w3.org/2000/svg">
  <sodipodi:namedview
     id="namedview7"
     pagecolor="#ffffff"
     bordercolor="#666666"
     borderopacity="1.0"
     inkscape:pageshadow="2"
     inkscape:pageopacity="0.0"
     inkscape:pagecheckerboard="0"
     inkscape:document-units="mm"
     showgrid="true"
     units="px"
     inkscape:current-layer="svg5"
     inkscape:showpageshadow="2"
     inkscape:deskcolor="#d1d1d1">
    <inkscape:grid
       type="xygrid"
       id="grid1"
       originx="0"
       originy="0"
       spacingy="1"
       spacingx="1"
       units="px" />
  </sodipodi:namedview>
  <defs
     id="defs2" />
  <g
     inkscape:groupmode="layer"
     id="layer2"
     inkscape:label="background">
    <rect
       style="fill-opacity: 0%;stroke:none;stroke-width:7.02745"
       id="rect1"
       width="67.73333"
       height="67.73333"
       x="0"
       y="0" />
  </g>
  <g
     inkscape:label="main"
     inkscape:groupmode="layer"
     id="layer1">
    <path
       style="font-weight:bold;font-size:38.8056px;line-height:1.25;font-family:Arial;-inkscape-font-specification:'Arial Bold';text-align:center;text-anchor:middle;fill:#000000;stroke-width:0.264583"
       d="m 48.845096,31.384471 q 0.606337,0.170533 1.098986,0.568442 0.511598,0.397909 0.87161,0.928454 0.360013,0.511597 0.549494,1.117935 0.208428,0.606337 0.208428,1.231623 v 16.333216 q 0,0.852662 -0.322116,1.591636 -0.322117,0.738973 -0.890559,1.288467 -0.549493,0.568441 -1.288467,0.890558 -0.738974,0.322117 -1.591636,0.322117 H 20.252493 q -0.852662,0 -1.591635,-0.322117 -0.738974,-0.322117 -1.307416,-0.890558 -0.549493,-0.549494 -0.87161,-1.288467 -0.322117,-0.738974 -0.322117,-1.591636 V 35.230925 q 0,-0.644234 0.189481,-1.250571 0.18948,-0.606338 0.549493,-1.098987 0.360013,-0.492649 0.852662,-0.87161 0.511598,-0.397909 1.117935,-0.625286 v -4.320154 q 0,-2.065338 0.530545,-3.97909 0.549494,-1.913753 1.515844,-3.581181 0.985299,-1.667428 2.349558,-3.031687 1.383207,-1.36426 3.031687,-2.33061 1.667428,-0.985299 3.581181,-1.515844 1.913753,-0.549493 3.97909,-0.549493 2.065337,0 3.97909,0.549493 1.913752,0.530545 3.58118,1.515844 1.667429,0.96635 3.031688,2.33061 1.364259,1.364259 2.33061,3.031687 0.985298,1.667428 1.515843,3.581181 0.549494,1.913752 0.549494,3.97909 z m 0,20.17967 V 35.230925 q 0,-0.549494 -0.416857,-0.947403 -0.397909,-0.416857 -0.947403,-0.416857 H 20.252493 q -0.568441,0 -0.96635,0.397909 -0.397909,0.397909 -0.397909,0.966351 v 16.333216 q 0,0.568441 0.397909,0.96635 0.397909,0.397909 0.96635,0.397909 h 27.36098 q 0.435805,0 0.644233,-0.227377 0.227377,-0.227376 0.435805,-0.549493 l 0.07579,-0.113688 q 0.07579,-0.246325 0.07579,-0.473701 z M 21.597805,27.064317 h 2.728518 q 0,-1.970597 0.738974,-3.69487 0.757922,-1.74322 2.046389,-3.031687 1.288467,-1.307415 3.031688,-2.046389 1.74322,-0.757922 3.713817,-0.757922 1.970597,0 3.694869,0.757922 1.74322,0.738974 3.031687,2.046389 1.307416,1.288467 2.046389,3.031687 0.757922,1.724273 0.757922,3.69487 v 5.438089 h 2.728519 v -5.438089 q 0,-1.686377 -0.435805,-3.259064 -0.435805,-1.572688 -1.231623,-2.936948 -0.795818,-1.364259 -1.913753,-2.482194 -1.117935,-1.117934 -2.482194,-1.913752 -1.364259,-0.795818 -2.936947,-1.231623 -1.572688,-0.435806 -3.259064,-0.435806 -1.686376,0 -3.259064,0.435806 -1.572688,0.435805 -2.936947,1.250571 -1.345312,0.795818 -2.463246,1.913752 -1.117935,1.117935 -1.932701,2.482194 -0.795818,1.345312 -1.231623,2.918 -0.435805,1.572687 -0.435805,3.259064 z"
       id="text1"
       aria-label="🔓" />
  </g>
</svg>
